<svg xmlns="http://www.w3.org/2000/svg" fill="none" viewBox="0 0 16 16" id="Ship--Streamline-Core" height="16" width="16">
  <desc>
    Ship Streamline Icon: https://streamlinehq.com
  </desc>
  <g id="ship--cruise-travel-boat-transportation-transport-ocean-liner-ship-sea-water">
    <path id="Union" fill="#000000" fill-rule="evenodd" d="M6.686205714285714 0.058643771428571426C7.284994285714285 -0.14095314285714286 7.932217142857143 0.1826582857142857 8.131817142857143 0.7814502857142857L9.014194285714284 3.4285714285714284H11.428571428571427c0.9467428571428571 0 1.7142857142857142 0.7675085714285714 1.7142857142857142 1.7142857142857142v0.8571428571428571h-10.285714285714285V5.142857142857142C2.8571428571428568 4.196079999999999 3.624651428571428 3.4285714285714284 4.571428571428571 3.4285714285714284h2.0334057142857143l-0.6414399999999999 -1.92432C5.763805714285714 0.9054639999999999 6.087417142857142 0.25824114285714284 6.686205714285714 0.058643771428571426ZM0.5714285714285714 8.261074285714285C0.5714285714285714 7.801291428571428 0.9441508571428571 7.428571428571428 1.4039314285714284 7.428571428571428H14.596114285714284c0.45977142857142855 0 0.8324571428571429 0.37271999999999994 0.8324571428571429 0.8325028571428571 0 0.05226285714285714 -0.004914285714285714 0.10442285714285715 -0.014742857142857143 0.15577142857142856l-0.7012571428571429 3.6815542857142853c-0.24365714285714285 0.017485714285714285 -0.48537142857142856 0.07977142857142856 -0.7125714285714286 0.18731428571428568 0 -1.1045714285714285 -0.8954285714285714 -2 -2 -2s-2 0.8954285714285714 -2 2C10 11.181142857142857 9.104571428571427 10.285714285714285 8 10.285714285714285s-2 0.8954285714285714 -2 2C6 11.181142857142857 5.104571428571428 10.285714285714285 4 10.285714285714285s-2.0011314285714286 0.8954171428571428 -2.0011314285714286 2c-0.22693714285714284 -0.10754285714285713 -0.4682742857142857 -0.1696 -0.7114742857142856 -0.18719999999999998L0.5861314285714285 8.416845714285714C0.576350857142857 8.365497142857143 0.5714285714285714 8.313337142857142 0.5714285714285714 8.261074285714285Zm3.4285714285714284 3.4532114285714286c0.3155885714285714 0 0.5714285714285714 0.25588571428571427 0.5714285714285714 0.5714285714285714 0 0.7890285714285714 0.6395885714285714 1.4285714285714284 1.4285714285714284 1.4285714285714284s1.4285714285714284 -0.6395428571428571 1.4285714285714284 -1.4285714285714284c0 -0.3155428571428571 0.25584 -0.5714285714285714 0.5714285714285714 -0.5714285714285714s0.5714285714285714 0.25588571428571427 0.5714285714285714 0.5714285714285714c0 0.7890285714285714 0.6395885714285714 1.4285714285714284 1.4285714285714284 1.4285714285714284S11.428571428571427 13.074742857142857 11.428571428571427 12.285714285714285c0 -0.3155428571428571 0.25588571428571427 -0.5714285714285714 0.5714285714285714 -0.5714285714285714s0.5714285714285714 0.25588571428571427 0.5714285714285714 0.5714285714285714c0 0.7890285714285714 0.6395428571428571 1.4285714285714284 1.4285714285714284 1.4285714285714284 0.2201142857142857 0 0.4272 -0.04937142857142857 0.612 -0.13714285714285712 0.17702857142857142 -0.08411428571428571 0.3848 -0.07165714285714286 0.5503999999999999 0.03302857142857143 0.1657142857142857 0.1048 0.26617142857142856 0.2870857142857142 0.26617142857142856 0.4830857142857143V14.285714285714285c0 0.3155428571428571 -0.25588571428571427 0.5714285714285714 -0.5714285714285714 0.5714285714285714H1.1428571428571428c-0.3155908571428571 0 -0.5714285714285714 -0.25588571428571427 -0.5714285714285714 -0.5714285714285714v-0.19245714285714283c0 -0.196 0.10044914285714285 -0.3782857142857143 0.26612685714285716 -0.4830857142857143 0.16567657142857142 -0.10468571428571428 0.37346171428571423 -0.11714285714285713 0.5505017142857143 -0.03302857142857143 0.1847885714285714 0.08777142857142856 0.3917942857142857 0.13714285714285712 0.6119428571428571 0.13714285714285712 0.7889828571428571 0 1.4285714285714284 -0.6395428571428571 1.4285714285714284 -1.4285714285714284 0 -0.3155428571428571 0.25584 -0.5714285714285714 0.5714285714285714 -0.5714285714285714Z" clip-rule="evenodd" stroke-width="1.1429"></path>
  </g>
</svg>