<svg xmlns="http://www.w3.org/2000/svg" fill="none" viewBox="0 0 16 16" id="Bus-Side--Streamline-Core" height="16" width="16">
  <desc>
    Bus Side Streamline Icon: https://streamlinehq.com
  </desc>
  <g id="bus-side--transportation-travel-bus-transit-transport-motorcoach-public">
    <path id="Union" fill="#000000" fill-rule="evenodd" d="M8.571428571428571 4.571428571428571H6v3.4285714285714284H8.571428571428571V4.571428571428571ZM10.285714285714285 4.571428571428571v3.4285714285714284h2.822857142857143l-0.9796571428571428 -3.4285714285714284H10.285714285714285ZM2.2857142857142856 4.571428571428571h2v3.4285714285714284H2.2857142857142856V4.571428571428571ZM0.5714285714285714 3.142857142857143C0.5714285714285714 2.0382857142857143 1.4668571428571429 1.1428571428571428 2.571428571428571 1.1428571428571428h8.85222857142857c0.8929142857142857 0 1.6777142857142855 0.5919542857142857 1.9230857142857143 1.4505599999999998l2.0049142857142854 7.017199999999999c0.05097142857142857 0.17868571428571425 0.07691428571428571 0.36361142857142853 0.07691428571428571 0.5494514285714285V11.714285714285714c0 0.6829714285714286 -0.34228571428571425 1.285942857142857 -0.8646857142857143 1.646742857142857 0.005028571428571428 -0.07245714285714284 0.007542857142857143 -0.1457142857142857 0.007542857142857143 -0.21942857142857142 0 -1.7364685714285713 -1.4076571428571427 -3.1441142857142856 -3.144068571428571 -3.1441142857142856 -1.7364114285714285 0 -3.144057142857143 1.4076457142857142 -3.144057142857143 3.1441142857142856 0 0.19554285714285713 0.01785142857142857 0.3869714285714286 0.052034285714285713 0.5726857142857142H7.0908114285714285c0.03418285714285714 -0.18571428571428572 0.05204571428571428 -0.3771428571428571 0.05204571428571428 -0.5726857142857142 0 -1.7364685714285713 -1.4076457142857142 -3.1441142857142856 -3.144068571428571 -3.1441142857142856 -1.6125599999999998 0 -2.9415839999999998 1.2139999999999997 -3.1229748571428573 2.777942857142857C0.682944 12.467885714285714 0.5714285714285714 12.104114285714285 0.5714285714285714 11.714285714285714v-8.571428571428571Zm3.42736 11.714171428571428c-0.94744 0 -1.7154971428571428 -0.768 -1.7154971428571428 -1.7154285714285713 0 -0.9474285714285713 0.7680571428571429 -1.7155428571428573 1.7154971428571428 -1.7155428571428573S5.7142857142857135 12.194171428571428 5.7142857142857135 13.1416c0 0.9474285714285713 -0.7680571428571429 1.7154285714285713 -1.7154971428571428 1.7154285714285713Zm7.428571428571428 0c-0.94744 0 -1.7154857142857143 -0.768 -1.7154857142857143 -1.7154285714285713 0 -0.947542857142857 0.7680457142857142 -1.7155428571428573 1.7154857142857143 -1.7155428571428573 0.9474971428571428 0 1.7154971428571428 0.768 1.7154971428571428 1.7155428571428573 0 0.9474285714285713 -0.768 1.7154285714285713 -1.7154971428571428 1.7154285714285713Z" clip-rule="evenodd" stroke-width="1.1429"></path>
  </g>
</svg>