<svg xmlns="http://www.w3.org/2000/svg" fill="none" viewBox="0 0 16 16" id="Car-1--Streamline-Core" height="16" width="16">
  <desc>
    Car 1 Streamline Icon: https://streamlinehq.com
  </desc>
  <g id="car-1--transportation-travel-transport-car">
    <path id="Union" fill="#000000" fill-rule="evenodd" d="M5.016948571428571 5.142857142857142c-0.11144 0 -0.21271999999999996 0.0648 -0.25941714285714285 0.16598857142857143L3.7792 7.428571428571428h6.155885714285714l-0.9783428571428571 -2.119725714285714C8.910045714285713 5.207657142857143 8.808777142857142 5.142857142857142 8.697337142857142 5.142857142857142H5.016948571428571ZM3.201028571428571 4.590457142857143 1.8911314285714287 7.428571428571428H1.7142857142857142C0.767512 7.428571428571428 0 8.19608 0 9.142857142857142v2.2857142857142856c0 0.7461714285714286 0.47668114285714286 1.3809142857142855 1.14212 1.6164571428571428 0.05247428571428571 -1.5324571428571427 1.3113542857142857 -2.7587542857142857 2.856645714285714 -2.7587542857142857 1.578045714285714 0 2.857405714285714 1.2787542857142857 2.8583542857142854 2.856582857142857h2.283302857142857c0.00096 -1.5778285714285714 1.28032 -2.856582857142857 2.85832 -2.856582857142857 1.5455999999999999 0 2.8046857142857142 1.2267542857142857 2.8566857142857143 2.759668571428571C15.522171428571427 12.811085714285714 16 12.175657142857142 16 11.428571428571427V9.142857142857142c0 -0.9467771428571428 -0.7675428571428571 -1.7142857142857142 -1.7142857142857142 -1.7142857142857142h-2.4625142857142857L10.513245714285715 4.590457142857143C10.186342857142856 3.882148571428571 9.47744 3.4285714285714284 8.697337142857142 3.4285714285714284H5.016948571428571c-0.7801028571428571 0 -1.4890057142857143 0.45358857142857145 -1.8159199999999998 1.1618857142857142Zm8.797714285714285 10.269657142857143c-0.9473942857142856 0 -1.7154399999999999 -0.768 -1.7154399999999999 -1.7155428571428573 0 -0.9474285714285713 0.7680457142857142 -1.7154285714285713 1.7154399999999999 -1.7154285714285713 0.947542857142857 0 1.7155428571428573 0.768 1.7155428571428573 1.7154285714285713 0 0.947542857142857 -0.768 1.7155428571428573 -1.7155428571428573 1.7155428571428573Zm-9.715451428571429 -1.7155428571428573c0 0.947542857142857 0.7680571428571429 1.7155428571428573 1.7154971428571428 1.7155428571428573S5.7142857142857135 14.092114285714285 5.7142857142857135 13.144571428571428c0 -0.9474285714285713 -0.7680571428571429 -1.7154285714285713 -1.7154971428571428 -1.7154285714285713s-1.7154971428571428 0.768 -1.7154971428571428 1.7154285714285713Z" clip-rule="evenodd" stroke-width="1.1429"></path>
  </g>
</svg>