<svg width="16" height="16" viewBox="0 0 16 16" fill="none" xmlns="http://www.w3.org/2000/svg">
<g clip-path="url(#clip0_1_9)">
<path d="M14.1347 6.41507L10.7754 6.41504L9.37221 2.20533C9.12967 1.47772 8.4648 0.974047 7.6987 0.937572L6.17422 0.864972C5.85535 0.849793 5.61663 1.15349 5.70671 1.45974L7.16415 6.41504H4.20945L3.30993 5.23873C2.65629 4.38398 1.39943 4.30057 0.638578 5.06142C0.331054 5.36895 0.290983 5.85363 0.543735 6.2075L1.74721 7.89239L0.543713 9.57727C0.290982 9.93111 0.33108 10.4159 0.638578 10.7234C1.39943 11.4842 2.65628 11.4008 3.30989 10.5461L4.20945 9.36974L7.16415 9.36974L5.71274 14.5948C5.62311 14.9175 5.89422 15.226 6.22574 15.1787L7.83355 14.9491C8.52994 14.8495 9.11031 14.3651 9.33275 13.6978L10.7754 9.36974L14.1347 9.36976C14.5063 9.36972 14.8627 9.22212 15.1254 8.95936C15.3882 8.6966 15.5358 8.34021 15.5358 7.96866L15.5358 7.81612C15.5358 7.44457 15.3882 7.08819 15.1254 6.82542C14.8626 6.56264 14.5063 6.41502 14.1347 6.41507Z" fill="black"/>
</g>
<defs>
<clipPath id="clip0_1_9">
<rect width="16" height="16" fill="white"/>
</clipPath>
</defs>
</svg>
