<svg xmlns="http://www.w3.org/2000/svg" fill="none" viewBox="0 0 16 16" id="Train-Front--Streamline-Core" height="16" width="16">
  <desc>
    Train Front Streamline Icon: https://streamlinehq.com
  </desc>
  <g id="train-front">
    <path id="Union" fill="#000000" fill-rule="evenodd" d="M2.2856914285714285 3.142857142857143c0 -1.7357485714285714 1.4071085714285714 -3.142857142857143 3.142857142857143 -3.142857142857143h5.142857142857142C12.3072 0 13.714285714285714 1.4071085714285714 13.714285714285714 3.142857142857143v6.285714285714286c0 1.1045714285714285 -0.8954285714285714 2 -2 2H4.285691428571428c-1.10456 0 -2 -0.8954285714285714 -2 -2v-6.285714285714286Zm3.142857142857143 -1.4285714285714284c-0.7889714285714285 0 -1.4285714285714284 0.6395885714285714 -1.4285714285714284 1.4285714285714284V5.7142857142857135H12V3.142857142857143c0 -0.7889828571428571 -0.6396114285714286 -1.4285714285714284 -1.4285942857142855 -1.4285714285714284h-5.142857142857142ZM4.14856 8.29142857142857c0 -0.39447999999999994 0.3197942857142857 -0.7142857142857142 0.7142857142857142 -0.7142857142857142h1.1428571428571428c0.39449142857142855 0 0.7142857142857142 0.3198057142857143 0.7142857142857142 0.7142857142857142 0 0.39449142857142855 -0.3197942857142857 0.7142857142857142 -0.7142857142857142 0.7142857142857142h-1.1428571428571428c-0.39449142857142855 0 -0.7142857142857142 -0.3197942857142857 -0.7142857142857142 -0.7142857142857142Zm5.142857142857142 0c0 -0.39447999999999994 0.3197942857142857 -0.7142857142857142 0.7142857142857142 -0.7142857142857142h1.1428571428571428c0.39452571428571426 0 0.7142971428571427 0.3198057142857143 0.7142971428571427 0.7142857142857142 0 0.39449142857142855 -0.31977142857142854 0.7142857142857142 -0.7142971428571427 0.7142857142857142h-1.1428571428571428c-0.39449142857142855 0 -0.7142857142857142 -0.3197942857142857 -0.7142857142857142 -0.7142857142857142ZM1.3142628571428572 14.628571428571428l0.8511657142857143 -1.1348571428571428 0.011177142857142858 -0.014971428571428571 0.851942857142857 -1.1358857142857142c0.2840342857142857 -0.3787428571428571 0.8212914285714286 -0.4554285714285714 1.2 -0.1714285714285714 0.3072457142857143 0.2304 0.4157485714285714 0.6275428571428572 0.29407999999999995 0.9714285714285713h6.954742857142857c-0.12170285714285714 -0.3438857142857143 -0.013257142857142856 -0.7410285714285714 0.2940571428571428 -0.9714285714285713 0.3787428571428571 -0.284 0.9159999999999999 -0.2073142857142857 1.2 0.1714285714285714l0.852 1.136 0.011085714285714286 0.014742857142857143 0.8512 1.1349714285714285c0.284 0.3787428571428571 0.2073142857142857 0.9159999999999999 -0.1714285714285714 1.2 -0.3787428571428571 0.284 -0.9159999999999999 0.2073142857142857 -1.2 -0.1714285714285714l-0.6 -0.7999999999999999H3.285691428571428l-0.6 0.7999999999999999c-0.2840342857142857 0.3787428571428571 -0.8212914285714286 0.4554285714285714 -1.2 0.1714285714285714 -0.37870628571428566 -0.284 -0.45545714285714284 -0.8212571428571428 -0.1714285714285714 -1.2Z" clip-rule="evenodd" stroke-width="1.1429"></path>
  </g>
</svg>